<!DOCTYPE svg PUBLIC "-//W3C//DTD SVG 1.1//EN" "http://www.w3.org/Graphics/SVG/1.1/DTD/svg11.dtd"><svg viewBox="0 0 4811 2069" xmlns="http://www.w3.org/2000/svg" xml:space="preserve" style="fill-rule:evenodd;clip-rule:evenodd;stroke-linejoin:round;stroke-miterlimit:2"><path style="fill:none" d="M0 0h4810.21v2068.91H0z"/><path d="m1738.01 493.042 357.658 827.825 358.95-827.825 199.688 1042.3h-112.258L2415.439 868.38h-2.571l-317.2 707.491L1779.81 868.38h-2.625l-126.608 666.962h-112.255l199.688-1042.3ZM2774.37 1042.3c-.001 222.325 180.191 408.021 403.362 408.021 223.167 0 403.279-185.696 403.279-408.021 0-223.613-177.483-408.009-403.279-408.009-225.8 0-403.363 184.396-403.363 408.009m916.28 1.341c0 283.75-232.284 508.634-512.917 508.634-280.654 0-512.992-224.884-512.992-508.634 0-282.491 232.338-511.341 512.992-511.341 280.633 0 512.917 228.85 512.917 511.341M4194.52 741.527c-39.2-68.034-86.146-107.234-169.734-107.234-87.425 0-163.162 62.763-163.162 153.004 0 85 87.504 124.23 154.046 154.321l65.283 28.775c127.921 56.238 236.208 120.288 236.208 277.25 0 172.6-138.308 304.629-309.316 304.629-157.93 0-275.388-101.954-306.734-254.958l107.054-30.062c14.342 100.679 91.334 183.066 197.08 183.066 105.725 0 202.304-81.1 202.304-192.25 0-115.075-90.046-154.279-181.467-196.162l-59.983-26.134c-114.859-52.325-214.084-111.15-214.084-252.404 0-152.975 129.259-251.087 275.421-251.087 109.629 0 202.304 56.225 254.504 153.008l-87.42 56.238" style="fill:#4a4949;fill-rule:nonzero"/><path d="M1521.49 1535.36h-308.017l-206.217-321.704-34.549-239.869 183.204 34.524 365.579 527.049Z" style="fill:#a7dd00;fill-rule:nonzero"/><path d="M493.037 1535.36h308.017l206.216-321.704-.006-233.357-150.088 28.012-364.139 527.049Z" style="fill:#1fa8e0;fill-rule:nonzero"/><path d="M1470.46 549.295h-314.545l-150.088 254.987v204.058l150.088-.029 314.545-459.016Z" style="fill:#c3e828;fill-rule:nonzero"/><path d="M542.618 549.295h314.558l150.088 254.987v204.058l-150.088-.029-314.558-459.016Z" style="fill:#6ac7f2;fill-rule:nonzero"/></svg>